<?xml version="1.0" encoding="UTF-8" standalone="no"?>
<svg
   version="1.1"
   width="2692.3076"
   height="589.47833"
   viewBox="0 0 2692.3076 589.47832"
   id="svg2"
   sodipodi:docname="White logo - no background.svg"
   xmlns:inkscape="http://www.inkscape.org/namespaces/inkscape"
   xmlns:sodipodi="http://sodipodi.sourceforge.net/DTD/sodipodi-0.dtd"
   xmlns="http://www.w3.org/2000/svg"
   xmlns:svg="http://www.w3.org/2000/svg">
  <defs
     id="defs2" />
  <sodipodi:namedview
     id="namedview2"
     pagecolor="#ffffff"
     bordercolor="#000000"
     borderopacity="0.25"
     inkscape:showpageshadow="2"
     inkscape:pageopacity="0.0"
     inkscape:pagecheckerboard="0"
     inkscape:deskcolor="#d1d1d1" />
  <g
     transform="matrix(7.6923077,0,0,7.6923077,76.92308,76.923074)"
     id="g2">
    <defs
       id="SvgjsDefs1975" />
    <g
       id="SvgjsG1977"
       featureKey="nameFeature-0"
       transform="matrix(2.1075957,0,0,2.1075957,-11.180254,-34.785325)"
       fill="#000000">
      <path
         d="m 14,27.32 c 0,-1.64 -0.36,-4.6 -2.6,-4.6 -1.56,0 -2.24,1.48 -2.24,2.88 0,1.52 0.4,4.84 2.44,4.84 1.8,0 2.4,-1.56 2.4,-3.12 z M 6.48,42 c 0,2.12 3.12,2.68 4.68,2.68 1.32,0 4.32,-0.2 4.32,-2.04 0,-0.84 -0.8,-1.2 -1.56,-1.2 -0.6,0 -2.16,0.24 -3.44,0.24 -0.92,0 -3.08,-0.32 -3.52,-0.32 -0.36,0 -0.48,0.36 -0.48,0.64 z M 24,39.68 c 0,3.6 -3.44,8.44 -13.24,8.44 -7.4,0 -10.2,-2.8 -10.2,-5.36 0,-2.32 2.2,-2.36 2.2,-2.96 0,-0.52 -2.16,-1.64 -2.16,-3.4 0,-2.84 3.24,-3.68 3.24,-4.24 0,-0.48 -2.72,-2.32 -2.72,-5.28 0,-4.84 6.04,-7.08 10.08,-7.08 2.04,0 4.8,0.76 6.2,0.76 3.04,0 4.56,-2.12 5.16,-2.12 0.92,0 1.32,1.2 1.32,1.96 0,2.24 -2.24,3.84 -2.24,4.28 0,0.4 0.12,0.84 0.12,1.24 0,5.4 -6.28,7.24 -10.68,7.24 -0.68,0 -1.36,-0.12 -2.08,-0.12 -0.68,0 -1.08,0.44 -1.08,1.08 0,1.24 1.76,1.48 2.68,1.48 1.24,0 5.88,-0.68 7.48,-0.68 4.16,0 5.92,2.36 5.92,4.76 z M 34.511,31.4 c -1.36,0 -2.28,1.28 -2.28,2.56 0,1.04 0.56,2.16 1.72,2.16 1.52,0 1.64,-1.64 1.64,-2.84 0,-0.88 0.04,-1.88 -1.08,-1.88 z m 9.72,-4.96 v 4 c 0,7.04 2.4,3.2 2.4,5.36 0,2.28 -3.12,4.76 -6.04,4.76 -3.16,0 -3.24,-2.04 -4.24,-2.04 -0.48,0 -1,0.52 -1.88,1 -0.88,0.52 -2.08,1.04 -3.92,1.04 -3.32,0 -6.64,-1.76 -6.64,-5.72 0,-2.84 2.72,-6.36 9.76,-6.36 1.24,0 1.8,0.08 1.8,-1.36 0,-1.32 -0.04,-4.08 -1.88,-4.08 -2.4,0 -2.64,4.32 -6.2,4.32 -1.28,0 -2.24,-0.92 -2.24,-2.2 0,-3.4 6.76,-5.6 10.56,-5.6 2.28,0 8.52,0.88 8.52,6.88 z m 4.831,6.08 v -3.68 c 0,-2.56 -0.52,-3.28 -0.92,-3.64 -0.52,-0.44 -1.08,-0.4 -1.08,-1.44 0,-2.96 9.92,-4.08 10,-4.08 1,0 1.08,0.88 1.08,1.72 0,0.48 -0.16,1.84 0.68,1.84 0.4,0 1.04,-0.88 2.16,-1.8 1.12,-0.88 2.72,-1.76 5.08,-1.76 4.76,0 4.8,3.56 5.64,3.56 0.32,0 1.04,-0.88 2.2,-1.8 1.2,-0.88 2.8,-1.76 4.84,-1.76 3.8,0 6.16,2.08 6.16,6 v 8.44 c 0,2.32 1.48,2.52 1.48,3.68 0,2.52 -4.56,2.64 -6.12,2.64 -1.32,0 -5.96,-0.28 -5.96,-2.36 0,-1.48 1.4,-1.44 1.4,-3.76 v -3.6 c 0,-1.68 0.2,-5.04 -2.08,-5.04 -2.24,0 -2.04,2.72 -2.04,4.2 v 2.48 c 0,4.92 1.44,4.08 1.44,5.56 0,2.48 -4.8,2.52 -6.24,2.52 -6.04,0 -6.36,-1.12 -6.32,-2.24 0.04,-2.12 2.04,-0.44 1.92,-5.2 v -2.28 c 0,-1.44 0.2,-5.04 -2.08,-5.04 -2.24,0 -2.04,2.72 -2.04,4.2 v 3.24 c 0,3.68 1.08,3.44 1.08,4.88 0,1.04 -0.92,2.44 -6.4,2.44 -1.56,0 -6.28,0.04 -6.28,-2.08 0,-1.8 2.4,-0.84 2.4,-5.84 z m 56.071,-1.72 h -8.68 c -0.44,0 -1.08,-0.12 -1.08,0.56 0,2 2.6,3.68 4.48,3.68 3,0 4.48,-1.8 5.32,-1.8 0.84,0 1.56,1.24 1.56,2 0,3.08 -5.64,5.32 -9.24,5.32 -7.2,0 -10.92,-5.2 -10.92,-10.36 0,-6.16 5.24,-10.64 11.24,-10.64 6.8,0 9.8,5.24 9.8,8.24 0,2.64 -1.2,3 -2.48,3 z m -7.56,-3.84 c 1.08,0 2.36,0.24 2.36,-1.2 0,-1.44 -0.88,-2.56 -2.36,-2.56 -1.32,0 -2.4,1.36 -2.4,2.64 0,1.44 1.36,1.12 2.4,1.12 z m 12.991,7 0.32,-4.32 c 0.08,-1.24 -0.32,-1.88 -1.6,-1.88 -0.48,0 -1.72,0.2 -1.72,-0.52 0,-3.16 -0.24,-3.52 0.96,-3.6 0.48,-0.04 1.12,-0.08 1.12,-0.76 0,-0.76 -1.52,-2.24 -1.52,-4.76 0,-4.76 4.92,-6.36 8.92,-6.36 6.52,0 8.04,3.44 8.04,5.16 0,1.68 -1.36,3.08 -3.04,3.08 -3.48,0 -3.92,-3.6 -6.2,-3.6 -0.8,0 -1.36,0.64 -1.36,1.44 0,2.52 4.16,3.36 4.88,5.12 0.12,0.32 0.16,0.44 0.56,0.44 1.68,0 3.96,-0.44 3.88,0.76 l -0.2,2.92 c -0.04,0.6 -0.48,0.68 -1.04,0.68 -2.36,0 -2.76,-0.04 -2.76,2.6 0,1.12 0.12,2.52 0.4,3.56 0.72,2.4 3.56,1.12 3.56,3.6 0,0.96 -0.08,2.92 -9.08,2.92 -1.92,0 -7.08,-0.04 -7.08,-2.84 0,-2.24 2.8,-1.2 2.96,-3.64 z M 136.195,21.2 v 10.16 c 0,1.6 0.12,4.08 2.28,4.08 2.88,0 2.48,-3.76 2.48,-5.68 0,-1.32 0.04,-3.04 -0.16,-4.32 -0.32,-2 -2.28,-1.32 -2.28,-3 0,-2.36 8.04,-2.76 9.56,-2.76 1.44,0 2.04,0.84 2.04,2.24 0,1.28 -0.08,2.52 -0.08,3.8 v 8.04 c 0,2.4 2.2,1.28 2.2,3.2 0,2.72 -7.08,3.48 -9.28,3.48 -3.08,0 -1.04,-2.4 -2.64,-2.4 -0.44,0 -1.08,0.6 -2.04,1.2 -0.96,0.6 -2.24,1.2 -4,1.2 -7.6,0 -6.96,-6 -6.96,-12 0,-6.12 -2.76,-3.44 -2.76,-6.08 0,-2.56 10.08,-2.68 10.4,-2.68 1.12,0 1.24,0.52 1.24,1.52 z m 28.031,3.88 v 7.76 c 0,0.72 -0.04,2.04 0.16,2.68 0.44,1.44 2.24,0.76 2.24,2.44 0,2.68 -4.88,2.48 -6.6,2.48 -1.8,0 -7.4,0.2 -7.4,-2.64 0,-1.4 1.72,-0.88 2.2,-2.36 0.52,-1.64 0.52,-6.64 0.52,-8.6 0,-1.56 0.08,-4.56 -0.28,-6.36 -0.6,-2.96 -2.96,-1.92 -2.96,-4.2 0,-3.48 10.4,-4.32 10.96,-4.32 1.36,0 1.68,0.88 1.68,2.08 0,0.92 -0.52,5.32 -0.52,11.04 z"
         id="path1"
         style="fill:#ffbf1a;fill-opacity:1" />
    </g>
  </g>
</svg>
